<svg width="30" height="30" viewBox="0 0 30 30" fill="none" xmlns="http://www.w3.org/2000/svg">
<path d="M13.3333 0H16.6667V30H13.3333V0Z" fill="white"/>
<path d="M3.33333 8.33333C3.33333 7.41286 4.07953 6.66667 5 6.66667H10V3.33333H5C2.23858 3.33333 0 5.57191 0 8.33333V21.6667C0 24.4281 2.23858 26.6667 5 26.6667H10V23.3333H5C4.07953 23.3333 3.33333 22.5871 3.33333 21.6667V8.33333Z" fill="white"/>
<path d="M26.6667 8.33333C26.6667 7.41286 25.9205 6.66667 25 6.66667H20V3.33333H25C27.7614 3.33333 30 5.57191 30 8.33333V21.6667C30 24.4281 27.7614 26.6667 25 26.6667H20V23.3333H25C25.9205 23.3333 26.6667 22.5871 26.6667 21.6667V8.33333Z" fill="white"/>
</svg>
